# xmcd
#
# Track frame offsets:
# 150
# 18571
# 35033
# 60733
# 76170
# 93951
# 111379
# 132814
# 155218
# 171770
# 187811
# 216784
# 236112
# 256760
# 271492
# 287779
# 301927
#
# Disc length: 4247 seconds
#
#
# Revision: 0
# Processed by: cddbd v1.5.1PL0 Copyright (c) Steve Scherf et al.
# Submitted via: FreeRIP 2.91 
#
DISCID=ee109511
DTITLE=Baladas en inglés disc 3
DYEAR=1900
DGENRE=
TTITLE0=Intro
TTITLE1=It wasn't me
TTITLE2=Clint Eastwood
TTITLE3=The call
TTITLE4=Angel
TTITLE5=Don't let me be the last to know
TTITLE6=What's time feel like for girl
TTITLE7=Let love head the way
TTITLE8=Thank you
TTITLE9=Play
TTITLE10=All for you
TTITLE11=Here with me
TTITLE12=My way
TTITLE13=Up side down
TTITLE14=Butterfly
TTITLE15=Up town girl
TTITLE16=Love don't cost a thing
EXTD=
EXTT0=
EXTT1=
EXTT2=
EXTT3=
EXTT4=
EXTT5=
EXTT6=
EXTT7=
EXTT8=
EXTT9=
EXTT10=
EXTT11=
EXTT12=
EXTT13=
EXTT14=
EXTT15=
EXTT16=
PLAYORDER=
